<svg xmlns="http://www.w3.org/2000/svg" width="78" height="51" viewBox="0 0 78 51" fill="none"><g clip-path="url(#clip0_176_340)"><path d="M63.9454 6.86646e-05C63.9454 1.15962 64.0374 2.13114 63.9036 3.06923C63.8472 3.46828 63.3813 3.89659 62.999 4.13686C61.1458 5.31312 59.1338 6.2533 57.406 7.60298C51.815 11.9738 48.5014 17.7277 48.3197 25.2031C48.2695 27.3237 49.0509 27.8565 50.831 27.0271C55.9769 24.6411 61.5114 26.0409 64.4636 30.4744C67.6832 35.3132 67.2298 41.7565 63.3709 45.9811C58.4443 51.3756 50.3337 51.5386 44.7407 46.3822C41.3916 43.2942 39.7995 39.3079 39.4026 34.7721C38.0717 19.5809 45.6913 7.05768 59.5621 1.55659C60.9348 1.01337 62.3409 0.566265 63.9454 6.86646e-05Z" fill="#B25089" fill-opacity="0.2"/></g><g clip-path="url(#clip1_176_340)"><path d="M36.0882 0.69651C36.0882 1.85606 36.1802 2.82758 36.0465 3.76567C35.99 4.16473 35.5241 4.59303 35.1418 4.8333C33.2886 6.00956 31.2766 6.94975 29.5488 8.29942C23.9579 12.6702 20.6442 18.4241 20.4625 25.8996C20.4123 28.0202 21.1937 28.553 22.9738 27.7235C28.1197 25.3375 33.6542 26.7374 36.6064 31.1708C39.826 36.0096 39.3726 42.453 35.5137 46.6775C30.5872 52.072 22.4766 52.235 16.8835 47.0787C13.5344 43.9907 11.9424 40.0043 11.5454 35.4685C10.2145 20.2773 17.8342 7.75412 31.7049 2.25303C33.0776 1.70982 34.4837 1.26271 36.0882 0.69651Z" fill="#B25089" fill-opacity="0.2"/></g><defs><clipPath id="clip0_176_340"><rect width="50.1429" height="50.1429" fill="white" transform="matrix(-1 0 0 -1 78 50.1429)"/></clipPath><clipPath id="clip1_176_340"><rect width="50.1429" height="50.1429" fill="white" transform="matrix(-1 0 0 -1 50.1428 50.8394)"/></clipPath></defs></svg>