<svg xmlns="http://www.w3.org/2000/svg" width="79" height="80" viewBox="0 0 79 80" fill="none"><path d="M72.6275 3.125L56.8121 7.78281L63.2154 3.39375C59.1729 4.31875 54.0656 6.12812 47.6469 9.04844L37.1701 20.1094L40.8887 12.3828C37.2936 14.4078 33.4824 17.0625 29.8102 20.1719L27.3723 30.2188L26.8477 22.7812C23.2217 26.1562 19.8117 29.9062 16.9881 33.8594C14.021 38 11.7019 42.375 10.54 46.7344L6.20119 43.7969C6.59002 47.5 7.79199 50.7188 9.76391 53.6719L4.57644 52.0625C5.75527 55.7344 7.68244 58.1094 10.9412 60.0312C9.11586 65.2344 8.25951 70.6719 7.3399 76.0938L10.179 76.5781C13.4717 43.3438 36.7072 22.1562 57.707 12.7688L58.7717 15.4844C39.9937 24 25.3973 38.375 17.7596 59.0938C20.5523 59.1094 23.2834 58.7656 25.8139 58.1094L26.5699 48.5938L28.5912 57.2656C30.273 56.6406 31.816 55.8906 33.1893 55.0156L29.9953 48.2188L35.0562 53.6562C36.2906 52.6562 37.309 51.5312 38.0805 50.2969C42.7711 42.875 47.6777 35.5 57.3367 29.3281L50.2853 26.7969L61.1016 27.125C62.8605 26.2188 64.7121 25.1094 66.1162 24.0625L58.4477 23.4375L69.9736 20.6875C70.8686 19.7812 71.7018 18.8281 72.4578 17.875C75.1271 14.4469 76.9324 10.8781 76.5004 7.63281C76.2998 6.00937 75.3432 4.48281 73.7848 3.62812C73.399 3.425 72.9824 3.24531 72.6275 3.125Z" fill="#E97085"/></svg>