<svg xmlns="http://www.w3.org/2000/svg" width="32" height="32" viewBox="0 0 32 32" fill="none"><circle cx="16" cy="16" r="15.5" stroke="#EA556F" stroke-opacity="0.49"/><path d="M16 6C16.9889 6 17.9556 6.29324 18.7779 6.84265C19.6001 7.39206 20.241 8.17295 20.6194 9.08658C20.9978 10.0002 21.0969 11.0055 20.9039 11.9755C20.711 12.9454 20.2348 13.8363 19.5355 14.5355C18.8363 15.2348 17.9454 15.711 16.9755 15.9039C16.0055 16.0969 15.0002 15.9978 14.0866 15.6194C13.173 15.241 12.3921 14.6001 11.8427 13.7779C11.2932 12.9556 11 11.9889 11 11L11.005 10.783C11.0609 9.49575 11.6116 8.27978 12.5422 7.38866C13.4728 6.49754 14.7115 6.00007 16 6ZM18 18C19.3261 18 20.5979 18.5268 21.5355 19.4645C22.4732 20.4021 23 21.6739 23 23V24C23 24.5304 22.7893 25.0391 22.4142 25.4142C22.0391 25.7893 21.5304 26 21 26H11C10.4696 26 9.96086 25.7893 9.58579 25.4142C9.21071 25.0391 9 24.5304 9 24V23C9 21.6739 9.52678 20.4021 10.4645 19.4645C11.4021 18.5268 12.6739 18 14 18H18Z" fill="#EA556F" fill-opacity="0.49"/></svg>