<svg xmlns="http://www.w3.org/2000/svg" width="75" height="76" viewBox="0 0 75 76" fill="none"><path d="M23.6665 2.86188C25.1449 4.45521 26.1191 6.37658 26.6785 8.45159C27.587 11.8222 27.529 15.5986 27.2234 19.4499C26.6117 27.1529 25.0877 35.2603 26.866 40.2916C28.5353 45.014 31.2119 47.8188 34.1814 49.1978C35.4587 49.7913 36.8035 50.1196 38.1637 50.2045C41.4149 40.5436 40.7213 28.2144 35.3717 19.8813C42.4545 27.041 45.8 37.8523 43.6387 49.1839L42.3526 49.7079C42.7542 49.5864 43.1498 49.4455 43.5381 49.2859C49.6586 46.7817 54.6672 39.4514 52.5835 28.7043C51.6261 23.7665 48.3404 16.8048 42.8423 11.4113C38.0857 6.7456 31.7348 3.21575 23.6663 2.86217L23.6665 2.86188ZM65.2632 30.1051C65.1401 31.9012 64.5838 33.5975 63.7163 35.1381C62.1998 37.8308 59.8421 40.1489 57.2892 42.3512C52.1833 46.7553 46.2945 50.8353 44.3527 55.0007C42.5136 58.9466 42.4654 62.3115 43.4465 64.988C43.8658 66.1334 44.4931 67.1891 45.2959 68.1005C53.1633 64.1243 60.1978 56.0904 61.9673 47.6116C61.9784 56.4653 57.4805 65.2292 49.2782 70.9024C54.5227 73.0614 61.9172 71.6496 67.1083 63.8145C69.5133 60.1843 71.7311 53.8246 71.6218 47.0596C71.5289 41.3168 69.8253 35.2989 65.2633 30.1055L65.2632 30.1051ZM3.02579 41.0108C1.63668 47.8208 3.1295 53.8999 5.88223 58.9206C9.12481 64.8344 14.1853 69.2186 18.0587 71.1434C26.4186 75.2979 33.5149 72.7715 36.9919 68.2444C27.091 67.4874 18.8729 62.1774 14.5159 54.5046C20.2317 60.951 30.2861 64.3445 39.0611 63.8005C39.308 62.6049 39.3313 61.3729 39.1299 60.1686C38.6591 57.3534 36.9517 54.4616 33.4124 51.9766C29.6763 49.3537 22.5659 48.806 15.9715 47.5791C12.6744 46.9661 9.49 46.1556 6.84845 44.592C5.33629 43.6969 4.01925 42.5049 3.02608 41.0109L3.02579 41.0108Z" fill="#E97085"/></svg>