<svg xmlns="http://www.w3.org/2000/svg" width="86" height="86" viewBox="0 0 86 86" fill="none"><path d="M39.4167 28.0575C37.3199 27.3162 35.5046 25.9427 34.221 24.1265C32.9375 22.3103 32.2488 20.1407 32.25 17.9167C32.25 15.0656 33.3826 12.3313 35.3986 10.3153C37.4146 8.29924 40.1489 7.16666 43 7.16666C45.8511 7.16666 48.5854 8.29924 50.6014 10.3153C52.6174 12.3313 53.75 15.0656 53.75 17.9167C53.75 22.6108 50.74 26.5883 46.5833 28.0575V38.1267C44.2408 37.4613 41.7592 37.4613 39.4167 38.1267V28.0575ZM65.575 75.6083C63.6433 74.5075 62.1019 72.833 61.1645 70.8169C60.2271 68.8009 59.9401 66.5431 60.3433 64.3567L51.6 59.3042C53.32 57.6558 54.61 55.5417 55.1833 53.105L63.9267 58.1575C67.295 55.255 72.24 54.6817 76.2892 57.0108C81.4492 59.985 83.205 66.5425 80.2308 71.6667C79.53 72.8905 78.5943 73.9639 77.4773 74.8249C76.3603 75.686 75.0842 76.3178 73.7223 76.6841C72.3604 77.0504 70.9395 77.1439 69.5413 76.9593C68.1431 76.7747 66.7952 76.3156 65.575 75.6083ZM9.675 56.975C13.7242 54.6458 18.6692 55.255 22.0375 58.1217L30.8167 53.0692C31.39 55.5417 32.6442 57.62 34.4 59.2683L25.6208 64.3208C26.445 68.6925 24.4742 73.2792 20.425 75.6083C15.265 78.5825 8.7075 76.8267 5.73333 71.6667C5.02669 70.4434 4.56808 69.0928 4.38375 67.6922C4.19941 66.2915 4.29295 64.8683 4.65903 63.5038C5.0251 62.1394 5.65653 60.8605 6.51721 59.7402C7.37789 58.6199 8.45093 57.6803 9.675 56.975ZM50.1667 50.1667C50.1667 52.0674 49.4116 53.8902 48.0676 55.2343C46.7236 56.5783 44.9007 57.3333 43 57.3333C41.0993 57.3333 39.2764 56.5783 37.9324 55.2343C36.5884 53.8902 35.8333 52.0674 35.8333 50.1667C35.8333 48.2659 36.5884 46.4431 37.9324 45.0991C39.2764 43.755 41.0993 43 43 43C44.9007 43 46.7236 43.755 48.0676 45.0991C49.4116 46.4431 50.1667 48.2659 50.1667 50.1667ZM60.9167 50.1667L60.8092 52.2092L55.5417 49.1275C55.1833 45.2933 53.1408 41.9608 50.1667 39.8467V33.7192C56.5092 36.5142 60.9167 42.8208 60.9167 50.1667ZM53.6425 64.6075C50.6683 66.7933 46.9775 68.0833 43 68.0833C39.0225 68.0833 35.3317 66.7933 32.3575 64.5L37.625 61.5258C39.2733 62.2783 41.1008 62.7083 43 62.7083C44.8992 62.7083 46.6908 62.2783 48.375 61.5258L53.6425 64.6075ZM25.1908 52.1733L25.0833 50.1667C25.0833 42.8208 29.4908 36.5142 35.8333 33.755V39.8825C32.8592 41.9608 30.8167 45.2933 30.4583 49.0917L25.1908 52.1733Z" fill="#E97085"/></svg>